<?xml version="1.0" ?><svg viewBox="0 0 60 60" xmlns="http://www.w3.org/2000/svg"><defs><style>.a{fill:#00a651;}.b{fill:#69b4ed;}.c{fill:#eff1f4;}.d{fill:#ffd301;}.e{fill:#e5e7ea;}.f{fill:#009f4e;}.g{fill:#070707;opacity:0.15;}.h{fill:#faad0d;}.i{fill:#fff;}</style></defs><title/><path class="a" d="M15.97,56.52A29.9915,29.9915,0,0,1,3.14,43.36l9.62-2.65Z"/><path class="a" d="M49.42,47.75l-9.65,2.64-.98-4.83L17.96,51.24l-2.3-11.32,13.62-3.75a59.63221,59.63221,0,0,0,4.76,6.16,53.18358,53.18358,0,0,0,6.67-9.3l5.43-1.49Z"/><path class="b" d="M59.91,27.7c-.04-.46-.09-.92-.14-1.38-.01-.08-.02-.15-.03-.23q-.09-.67493-.21-1.32v-.02L42.37,29.47a13.28833,13.28833,0,0,0,1.17-5.14l-.03.05c.01-.18.03-.36.03-.55a9.5,9.5,0,0,0-19,0c0,.19.02.37006.03.55l-.03-.05s-.23,3.28,3.11,9.19L22.61,34.9,15.74,3.6a30.99273,30.99273,0,0,0-2.7,1.66A29.99656,29.99656,0,0,0,1.93,40.59c.02.04.03.08.05.12.15.4.31.8.48,1.18005a2.4777,2.4777,0,0,0,.17.37c.14.35.31.69.48,1.03.01.02.02.05.03.07l9.62-2.65,3.21,15.81c.32.17.64.33.97.49005.44.21.89.42,1.34.61.35.15.7.29,1.06.43l-.79-3.87,17.93-4.89,1.93,9.5a.08993.08993,0,0,0,.05-.01l.12-.03c.43-.13.86-.27,1.28-.42.42-.14.84-.3,1.26-.47l.15-.06-.9-4.46,9.65-2.64L50.3,52.08c.22-.2.45-.41.66-.62994.12-.11.23-.22.34-.34.31-.31.61-.62.9-.94q.315-.36.63-.72L49.04,30.74l10.87-2.99ZM49.42,47.75l-9.65,2.64-.98-4.83L17.96,51.24l-2.3-11.32,13.62-3.75a59.63221,59.63221,0,0,0,4.76,6.16,53.18358,53.18358,0,0,0,6.67-9.3l5.43-1.49Z"/><path class="a" d="M60,30a29.8667,29.8667,0,0,1-7.17,19.45L49.04,30.74l10.87-2.99Q60,28.86,60,30Z"/><path class="a" d="M50.3,52.08a29.85328,29.85328,0,0,1-9.03,5.72l-.9-4.46,9.65-2.64Z"/><path class="a" d="M38.41,58.79A29.5841,29.5841,0,0,1,30,60a29.92867,29.92867,0,0,1-10.66-1.95l-.79-3.87,17.93-4.89Z"/><path class="c" d="M42.37,29.47a13.28833,13.28833,0,0,0,1.17-5.14l-.03.05c.01-.18.03-.36.03-.55a9.5,9.5,0,0,0-19,0c0,.19.02.37006.03.55l-.03-.05s-.23,3.28,3.11,9.19L22.61,34.9,15.74,3.6A30.00344,30.00344,0,0,1,59.53,24.75Z"/><path class="d" d="M22.95,36.44l-2.93.65-.31-1.39L13.04,5.26a30.99273,30.99273,0,0,1,2.7-1.66l6.87,31.3Z"/><path class="e" d="M49.92029,7.57568a30.07,30.07,0,0,0-2.92688-2.29614L41.27356,6.85327l-5.04,1.38-2.9.8L17.86621,13.28723l.64227,2.92609,24.39508-6.71Z"/><path class="e" d="M56.58759,16.10028,42.69318,19.92163a9.42883,9.42883,0,0,1,.79,2.88544L57.84814,18.8559A29.81743,29.81743,0,0,0,56.58759,16.10028Z"/><path class="e" d="M34.395,8.90192l.31,1.39,2.93-.65-.34-1.54L35.63354.532A29.99884,29.99884,0,0,0,32.46741.10486Z"/><path class="f" d="M19.34,58.05c-.36-.14-.71-.28-1.06-.43-.45-.19-.9-.4-1.34-.61-.33-.16-.65-.32-.97-.49005l-3.21-15.81L12.57,39.78l2.93994-.6.15.74,2.3,11.32.59,2.94Z"/><path class="f" d="M41.27,57.8l-.15.06c-.42.17-.84.33-1.26.47-.42.15-.85.29-1.28.42l-.12.03c-.02.01-.03.02-.05.02v-.01l-1.93-9.5L18.55,54.18l-1.35.37-.79-2.89,1.55-.42,20.83-5.68.98,4.83.6,2.95Z"/><path class="f" d="M52.83,49.45q-.31494.36-.63.72c-.29.32-.59.63-.9.94-.11.12-.22.23-.34.34-.21.22-.44.43-.66.62994L50.02,50.7l-.6-2.95L46.14,31.54l-.12-.6,2.94-.6.08.4Z"/><polygon class="f" points="51.57 50.28 50.02 50.7 40.37 53.34 38.66 53.8 37.87 50.91 39.77 50.39 49.42 47.75 50.78 47.38 51.57 50.28"/><path class="d" d="M59.91,27.7v.05L49.04,30.74l-2.9.8-5.43,1.49L29.28,36.17,15.66,39.92l-2.9.79L3.14,43.36c-.00995-.02-.02-.05-.03-.07-.17-.34-.34-.68-.48-1.03a2.4777,2.4777,0,0,1-.17-.37c-.17-.38-.33-.78-.48-1.18005-.02-.04-.03-.08-.05-.12L19.71,35.7l2.9-.8,5.04-1.38,14.72-4.05,17.16-4.72v.02q.12.64508.21,1.32c.01.08.02.15.03.23C59.82,26.78,59.87,27.24,59.91,27.7Z"/><path class="g" d="M43.9294,37.77886a26.733,26.733,0,0,1-2.41711,1.418,41.42129,41.42129,0,0,1-7.31,2.86125,45.17518,45.17518,0,0,1,.92568-5.21154c.18665-.75684.37864-1.45075.57648-2.09106,1.41161-4.55672,3.08414-6.33279,3.08414-6.33279l-.01121.03922c.08212-.10564.16-.21493.25121-.32263,2.52-2.97578,6.37342-3.84905,8.61357-1.952s2.01363,5.84169-.50634,8.81746c-.0912.1077-.18617.20252-.27683.30093l.03684-.01752A12.74851,12.74851,0,0,1,43.9294,37.77886Z"/><path class="d" d="M42.37,29.47a30.559,30.559,0,0,1-1.66,3.56,53.18358,53.18358,0,0,1-6.67,9.3,59.63221,59.63221,0,0,1-4.76-6.16c-.62-.94-1.16-1.82-1.63-2.65-3.34-5.91-3.11-9.19-3.11-9.19l.03.05c-.01-.18-.03-.36-.03-.55a9.5,9.5,0,0,1,19,0c0,.19-.02.37006-.03.55l.03-.05A13.28833,13.28833,0,0,1,42.37,29.47Z"/><circle class="h" cx="34.04327" cy="24.5" r="4.52337"/><circle class="i" cx="34.04327" cy="24.5" r="2.83196"/></svg>